<svg height="1198" width="720" xmlns="http://www.w3.org/2000/svg">
<rect height="1198" fill="#555" width="720"></rect>
<text fill="#7f7" font-family="Courier New" font-size="12" xml:space="preserve">
<tspan x="10" y="26">9 megabytes installed</tspan>
<tspan x="10" y="42"></tspan>
<tspan x="10" y="58">node_modules</tspan>
<tspan x="10" y="74">└─┬ amd-optimize@0.6.1 </tspan>
<tspan x="10" y="90">  ├── acorn@0.9.0 </tspan>
<tspan x="10" y="106">  ├─┬ ast-types@0.3.38 </tspan>
<tspan x="10" y="122">  │ └── private@0.1.7 </tspan>
<tspan x="10" y="138">  ├── async@0.2.10 </tspan>
<tspan x="10" y="154">  ├─┬ escodegen@1.8.1 </tspan>
<tspan x="10" y="170">  │ ├── esprima@2.7.3 </tspan>
<tspan x="10" y="186">  │ ├── estraverse@1.9.3 </tspan>
<tspan x="10" y="202">  │ ├── esutils@2.0.2 </tspan>
<tspan x="10" y="218">  │ ├─┬ optionator@0.8.2 </tspan>
<tspan x="10" y="234">  │ │ ├── deep-is@0.1.3 </tspan>
<tspan x="10" y="250">  │ │ ├── fast-levenshtein@2.0.6 </tspan>
<tspan x="10" y="266">  │ │ ├── levn@0.3.0 </tspan>
<tspan x="10" y="282">  │ │ ├── prelude-ls@1.1.2 </tspan>
<tspan x="10" y="298">  │ │ ├── type-check@0.3.2 </tspan>
<tspan x="10" y="314">  │ │ └── wordwrap@1.0.0 </tspan>
<tspan x="10" y="330">  │ └─┬ source-map@0.2.0 </tspan>
<tspan x="10" y="346">  │   └── amdefine@1.0.1 </tspan>
<tspan x="10" y="362">  ├── lodash@2.4.2 </tspan>
<tspan x="10" y="378">  ├─┬ through2@0.4.2 </tspan>
<tspan x="10" y="394">  │ ├─┬ readable-stream@1.0.34 </tspan>
<tspan x="10" y="410">  │ │ ├── core-util-is@1.0.2 </tspan>
<tspan x="10" y="426">  │ │ ├── inherits@2.0.3 </tspan>
<tspan x="10" y="442">  │ │ ├── isarray@0.0.1 </tspan>
<tspan x="10" y="458">  │ │ └── string_decoder@0.10.31 </tspan>
<tspan x="10" y="474">  │ └─┬ xtend@2.1.2 </tspan>
<tspan x="10" y="490">  │   └── object-keys@0.4.0 </tspan>
<tspan x="10" y="506">  ├─┬ vinyl@0.2.3 </tspan>
<tspan x="10" y="522">  │ └── clone-stats@0.0.1 </tspan>
<tspan x="10" y="538">  ├─┬ vinyl-fs@0.3.14 </tspan>
<tspan x="10" y="554">  │ ├─┬ defaults@1.0.3 </tspan>
<tspan x="10" y="570">  │ │ └── clone@1.0.2 </tspan>
<tspan x="10" y="586">  │ ├─┬ glob-stream@3.1.18 </tspan>
<tspan x="10" y="602">  │ │ ├─┬ glob@4.5.3 </tspan>
<tspan x="10" y="618">  │ │ │ ├─┬ inflight@1.0.6 </tspan>
<tspan x="10" y="634">  │ │ │ │ └── wrappy@1.0.2 </tspan>
<tspan x="10" y="650">  │ │ │ └── once@1.4.0 </tspan>
<tspan x="10" y="666">  │ │ ├─┬ glob2base@0.0.12 </tspan>
<tspan x="10" y="682">  │ │ │ └── find-index@0.1.1 </tspan>
<tspan x="10" y="698">  │ │ ├─┬ minimatch@2.0.10 </tspan>
<tspan x="10" y="714">  │ │ │ └─┬ brace-expansion@1.1.7 </tspan>
<tspan x="10" y="730">  │ │ │   ├── balanced-match@0.4.2 </tspan>
<tspan x="10" y="746">  │ │ │   └── concat-map@0.0.1 </tspan>
<tspan x="10" y="762">  │ │ ├── ordered-read-streams@0.1.0 </tspan>
<tspan x="10" y="778">  │ │ ├─┬ through2@0.6.5 </tspan>
<tspan x="10" y="794">  │ │ │ └── xtend@4.0.1 </tspan>
<tspan x="10" y="810">  │ │ └── unique-stream@1.0.0 </tspan>
<tspan x="10" y="826">  │ ├─┬ glob-watcher@0.0.6 </tspan>
<tspan x="10" y="842">  │ │ └─┬ gaze@0.5.2 </tspan>
<tspan x="10" y="858">  │ │   └─┬ globule@0.1.0 </tspan>
<tspan x="10" y="874">  │ │     ├─┬ glob@3.1.21 </tspan>
<tspan x="10" y="890">  │ │     │ ├── graceful-fs@1.2.3 </tspan>
<tspan x="10" y="906">  │ │     │ └── inherits@1.0.2 </tspan>
<tspan x="10" y="922">  │ │     ├── lodash@1.0.2 </tspan>
<tspan x="10" y="938">  │ │     └─┬ minimatch@0.2.14 </tspan>
<tspan x="10" y="954">  │ │       ├── lru-cache@2.7.3 </tspan>
<tspan x="10" y="970">  │ │       └── sigmund@1.0.1 </tspan>
<tspan x="10" y="986">  │ ├─┬ graceful-fs@3.0.11 </tspan>
<tspan x="10" y="1002">  │ │ └── natives@1.1.0 </tspan>
<tspan x="10" y="1018">  │ ├─┬ mkdirp@0.5.1 </tspan>
<tspan x="10" y="1034">  │ │ └── minimist@0.0.8 </tspan>
<tspan x="10" y="1050">  │ ├─┬ strip-bom@1.0.0 </tspan>
<tspan x="10" y="1066">  │ │ ├── first-chunk-stream@1.0.0 </tspan>
<tspan x="10" y="1082">  │ │ └── is-utf8@0.2.1 </tspan>
<tspan x="10" y="1098">  │ ├─┬ through2@0.6.5 </tspan>
<tspan x="10" y="1114">  │ │ └── xtend@4.0.1 </tspan>
<tspan x="10" y="1130">  │ └─┬ vinyl@0.4.6 </tspan>
<tspan x="10" y="1146">  │   └── clone@0.2.0 </tspan>
<tspan x="10" y="1162">  └─┬ vinyl-sourcemaps-apply@0.1.4 </tspan>
<tspan x="10" y="1178">    └── source-map@0.1.43</tspan>
</text>
</svg>
